<?xml version="1.0" encoding="UTF-8" standalone="no"?>
<svg width="800" height="400" viewBox="0 0 800 400" xmlns="http://www.w3.org/2000/svg">
  <rect width="800" height="400" fill="#f8f9fa"/>
  
  <!-- Background with map-like elements -->
  <g stroke="#e9ecef" stroke-width="1">
    <line x1="0" y1="50" x2="800" y2="50"/>
    <line x1="0" y1="100" x2="800" y2="100"/>
    <line x1="0" y1="150" x2="800" y2="150"/>
    <line x1="0" y1="200" x2="800" y2="200"/>
    <line x1="0" y1="250" x2="800" y2="250"/>
    <line x1="0" y1="300" x2="800" y2="300"/>
    <line x1="0" y1="350" x2="800" y2="350"/>
    
    <line x1="50" y1="0" x2="50" y2="400"/>
    <line x1="100" y1="0" x2="100" y2="400"/>
    <line x1="150" y1="0" x2="150" y2="400"/>
    <line x1="200" y1="0" x2="200" y2="400"/>
    <line x1="250" y1="0" x2="250" y2="400"/>
    <line x1="300" y1="0" x2="300" y2="400"/>
    <line x1="350" y1="0" x2="350" y2="400"/>
    <line x1="400" y1="0" x2="400" y2="400"/>
    <line x1="450" y1="0" x2="450" y2="400"/>
    <line x1="500" y1="0" x2="500" y2="400"/>
    <line x1="550" y1="0" x2="550" y2="400"/>
    <line x1="600" y1="0" x2="600" y2="400"/>
    <line x1="650" y1="0" x2="650" y2="400"/>
    <line x1="700" y1="0" x2="700" y2="400"/>
    <line x1="750" y1="0" x2="750" y2="400"/>
  </g>
  
  <!-- Green route path -->
  <path d="M100,300 C150,250 200,280 250,200 S350,150 400,100 S500,80 600,150 S700,200 750,250" 
        stroke="#34a853" stroke-width="8" fill="none" stroke-linecap="round"/>
  
  <!-- Start and end points -->
  <circle cx="100" cy="300" r="15" fill="#4285f4"/>
  <circle cx="750" cy="250" r="15" fill="#ea4335"/>
  
  <!-- Eco-friendly icons -->
  <g fill="#34a853">
    <circle cx="200" cy="150" r="10"/>
    <circle cx="350" cy="120" r="10"/>
    <circle cx="500" cy="100" r="10"/>
    <circle cx="650" cy="180" r="10"/>
  </g>
  
  <!-- UI Elements -->
  <g>
    <rect x="50" y="20" width="200" height="40" rx="5" fill="#ffffff" stroke="#34a853" stroke-width="2"/>
    <text x="150" y="45" font-family="Arial" font-size="16" fill="#34a853" text-anchor="middle">Find Eco-Friendly Route</text>
  </g>
</svg>
