<?xml version="1.0" encoding="UTF-8" standalone="no"?>
<svg width="800" height="400" viewBox="0 0 800 400" xmlns="http://www.w3.org/2000/svg">
  <rect width="800" height="400" fill="#f8fafc"/>
  
  <!-- Background elements -->
  <g opacity="0.1">
    <rect x="50" y="50" width="700" height="300" rx="10" stroke="#3b82f6" stroke-width="2" fill="none"/>
    <line x1="50" y1="100" x2="750" y2="100" stroke="#3b82f6" stroke-width="2"/>
    <line x1="250" y1="100" x2="250" y2="350" stroke="#3b82f6" stroke-width="2"/>
  </g>
  
  <!-- Resume document -->
  <g transform="translate(100, 150)">
    <rect x="0" y="0" width="180" height="220" rx="5" fill="white" stroke="#e2e8f0" stroke-width="2"/>
    
    <!-- Resume content lines -->
    <rect x="20" y="20" width="140" height="10" rx="2" fill="#7c3aed" opacity="0.8"/>
    <rect x="20" y="40" width="100" height="6" rx="2" fill="#64748b" opacity="0.6"/>
    <rect x="20" y="55" width="120" height="6" rx="2" fill="#64748b" opacity="0.6"/>
    
    <rect x="20" y="80" width="80" height="8" rx="2" fill="#7c3aed" opacity="0.6"/>
    <rect x="20" y="95" width="140" height="6" rx="2" fill="#64748b" opacity="0.6"/>
    <rect x="20" y="110" width="130" height="6" rx="2" fill="#64748b" opacity="0.6"/>
    
    <rect x="20" y="135" width="80" height="8" rx="2" fill="#7c3aed" opacity="0.6"/>
    <rect x="20" y="150" width="140" height="6" rx="2" fill="#64748b" opacity="0.6"/>
    <rect x="20" y="165" width="130" height="6" rx="2" fill="#64748b" opacity="0.6"/>
    
    <rect x="20" y="190" width="80" height="8" rx="2" fill="#7c3aed" opacity="0.6"/>
    <rect x="20" y="205" width="100" height="6" rx="2" fill="#64748b" opacity="0.6"/>
  </g>
  
  <!-- AI Analysis Panel -->
  <g transform="translate(350, 120)">
    <rect x="0" y="0" width="300" height="250" rx="10" fill="white" stroke="#e2e8f0" stroke-width="2"/>
    
    <!-- Panel header -->
    <rect x="0" y="0" width="300" height="40" rx="10" fill="#7c3aed"/>
    <text x="150" y="25" font-family="Arial" font-size="16" fill="white" text-anchor="middle">AI Resume Analysis</text>
    
    <!-- Analysis content -->
    <g transform="translate(20, 60)">
      <!-- Score -->
      <text x="0" y="0" font-family="Arial" font-size="14" font-weight="bold" fill="#334155">Resume Score:</text>
      <rect x="120" y="-15" width="150" height="20" rx="10" fill="#f1f5f9"/>
      <rect x="120" y="-15" width="120" height="20" rx="10" fill="#7c3aed"/>
      <text x="150" y="0" font-family="Arial" font-size="12" fill="white">85/100</text>
      
      <!-- Keyword match -->
      <text x="0" y="30" font-family="Arial" font-size="14" font-weight="bold" fill="#334155">Keyword Match:</text>
      <rect x="120" y="15" width="150" height="20" rx="10" fill="#f1f5f9"/>
      <rect x="120" y="15" width="105" height="20" rx="10" fill="#3b82f6"/>
      <text x="150" y="30" font-family="Arial" font-size="12" fill="white">70%</text>
      
      <!-- Improvement suggestions -->
      <text x="0" y="60" font-family="Arial" font-size="14" font-weight="bold" fill="#334155">Suggestions:</text>
      <rect x="0" y="70" width="260" height="25" rx="5" fill="#f8fafc"/>
      <text x="10" y="87" font-family="Arial" font-size="12" fill="#64748b">Add more quantifiable achievements</text>
      
      <rect x="0" y="105" width="260" height="25" rx="5" fill="#f8fafc"/>
      <text x="10" y="122" font-family="Arial" font-size="12" fill="#64748b">Include relevant technical skills</text>
      
      <rect x="0" y="140" width="260" height="25" rx="5" fill="#f8fafc"/>
      <text x="10" y="157" font-family="Arial" font-size="12" fill="#64748b">Optimize for ATS compatibility</text>
    </g>
  </g>
  
  <!-- Career Dashboard Elements -->
  <g transform="translate(50, 50)">
    <rect x="0" y="0" width="700" height="40" rx="5" fill="#7c3aed"/>
    <text x="350" y="25" font-family="Arial" font-size="20" font-weight="bold" fill="white" text-anchor="middle">ResumePro Dashboard</text>
  </g>
  
  <!-- Feature icons -->
  <g transform="translate(120, 380)">
    <circle cx="0" cy="0" r="15" fill="#7c3aed" opacity="0.8"/>
    <text x="30" y="5" font-family="Arial" font-size="14" fill="#334155">Resume Analysis</text>
  </g>
  
  <g transform="translate(300, 380)">
    <circle cx="0" cy="0" r="15" fill="#3b82f6" opacity="0.8"/>
    <text x="30" y="5" font-family="Arial" font-size="14" fill="#334155">Job Matching</text>
  </g>
  
  <g transform="translate(480, 380)">
    <circle cx="0" cy="0" r="15" fill="#10b981" opacity="0.8"/>
    <text x="30" y="5" font-family="Arial" font-size="14" fill="#334155">Cover Letter Generator</text>
  </g>
  
  <g transform="translate(680, 380)">
    <circle cx="0" cy="0" r="15" fill="#f59e0b" opacity="0.8"/>
    <text x="30" y="5" font-family="Arial" font-size="14" fill="#334155">Course Recommendations</text>
  </g>
  
  <!-- AI icon -->
  <g transform="translate(700, 80)">
    <circle cx="0" cy="0" r="20" fill="#7c3aed" opacity="0.8"/>
    <text x="0" y="5" font-family="Arial" font-size="14" font-weight="bold" fill="white" text-anchor="middle">AI</text>
  </g>
</svg>
